ffmpeg started on 2025-05-12 at 15:28:09
Report written to "D:\Convert\FFMetrics\reports\ssim_report-6.txt"
Log level: 32
Command line:
ffmpeg -hide_banner -nostdin -i "G:\\\xc0\xed\xe8\xec\xe5\\\xce\xed\xe3\xee\xe8\xed\xe3\xe8\\!_35_\xcb\xe5\xf2\xee_2024\\DreamCast\\\xc6\xe8\xe7\xed\xfc \xf1 \xec\xee\xe5\xe9 \xf1\xe2\xee\xe4\xed\xee\xe9 \xf1\xe5\xf1\xf2\xf0\xee\xe9\\[DC] Gimai Seikatsu - 11_Telegram_HEVC.mkv" -i "G:\\\xc0\xed\xe8\xec\xe5\\\xce\xed\xe3\xee\xe8\xed\xe3\xe8\\!_35_\xcb\xe5\xf2\xee_2024\\DreamCast\\\xc6\xe8\xe7\xed\xfc \xf1 \xec\xee\xe5\xe9 \xf1\xe2\xee\xe4\xed\xee\xe9 \xf1\xe5\xf1\xf2\xf0\xee\xe9\\[DC] Gimai Seikatsu - 11_Telegram.mp4" -lavfi "[0:v]settb=AVTB,setpts=PTS-STARTPTS,format=pix_fmts=yuv420p10,fps=24000/1001,scale=1920:1080:flags=bicubic[main];[1:v]settb=AVTB,setpts=PTS-STARTPTS,format=pix_fmts=yuv420p,fps=24000/1001,scale=1920:1080:flags=bicubic[ref];[main][ref]ssim=eof_action=endall:stats_file='D\\:/Convert/FFMetrics/logs/ssim_logfile-6.txt'" -f null -
Input #0, matroska,webm, from 'G:\Аниме\Онгоинги\!_35_Лето_2024\DreamCast\Жизнь с моей сводной сестрой\[DC] Gimai Seikatsu - 11_Telegram_HEVC.mkv':
  Metadata:
    COMPATIBLE_BRANDS: isomiso2avc1mp41
    MAJOR_BRAND     : isom
    MINOR_VERSION   : 512
    ENCODER         : Lavf61.7.100
  Duration: 00:23:59.40, start: -0.021000, bitrate: 749 kb/s
  Stream #0:0: Video: hevc (Main 10), yuv420p10le(tv, bt709, progressive), 1920x1080 [SAR 1:1 DAR 16:9], 23.98 fps, 23.98 tbr, 1k tbn (default)
      Metadata:
        HANDLER_NAME    : VideoHandler
        VENDOR_ID       : [0][0][0][0]
        ENCODER         : Lavc61.19.100 libx265
        BPS             : 553698
        DURATION        : 00:23:56.559708333
        NUMBER_OF_FRAMES: 34443
        NUMBER_OF_BYTES : 99427497
        _STATISTICS_WRITING_APP: mkvpropedit v66.0.0 ('Josie') 64-bit
        _STATISTICS_WRITING_DATE_UTC: 2025-05-07 14:11:41
        _STATISTICS_TAGS: BPS DURATION NUMBER_OF_FRAMES NUMBER_OF_BYTES
  Stream #0:1: Audio: aac (LC), 48000 Hz, stereo, fltp (default)
      Metadata:
        HANDLER_NAME    : SoundHandler
        VENDOR_ID       : [0][0][0][0]
        ENCODER         : Lavc61.19.100 aac
        BPS             : 192845
        DURATION        : 00:23:59.402000000
        NUMBER_OF_FRAMES: 67473
        NUMBER_OF_BYTES : 34697735
        _STATISTICS_WRITING_APP: mkvpropedit v66.0.0 ('Josie') 64-bit
        _STATISTICS_WRITING_DATE_UTC: 2025-05-07 14:11:41
        _STATISTICS_TAGS: BPS DURATION NUMBER_OF_FRAMES NUMBER_OF_BYTES
Input #1, mov,mp4,m4a,3gp,3g2,mj2, from 'G:\Аниме\Онгоинги\!_35_Лето_2024\DreamCast\Жизнь с моей сводной сестрой\[DC] Gimai Seikatsu - 11_Telegram.mp4':
  Metadata:
    major_brand     : isom
    minor_version   : 512
    compatible_brands: isomiso2avc1mp41
    encoder         : Lavf60.16.100
  Duration: 00:23:59.37, start: 0.000000, bitrate: 3741 kb/s
  Stream #1:0[0x1](und): Video: h264 (High) (avc1 / 0x31637661), yuv420p(tv, bt709, progressive), 1920x1080 [SAR 1:1 DAR 16:9], 3600 kb/s, 23.98 fps, 23.98 tbr, 24k tbn (default)
      Metadata:
        handler_name    : VideoHandler
        vendor_id       : [0][0][0][0]
        encoder         : Lavc60.31.102 h264_qsv
  Stream #1:1[0x2](und): Audio: aac (HE-AACv2) (mp4a / 0x6134706D), 48000 Hz, stereo, fltp, 144 kb/s (default)
      Metadata:
        handler_name    : SoundHandler
        vendor_id       : [0][0][0][0]
Stream mapping:
  Stream #0:0 (hevc) -> settb:default
  Stream #1:0 (h264) -> settb:default
  ssim:default -> Stream #0:0 (wrapped_avframe)
  Stream #0:1 -> #0:1 (aac (native) -> pcm_s16le (native))
Output #0, null, to 'pipe:':
  Metadata:
    COMPATIBLE_BRANDS: isomiso2avc1mp41
    MAJOR_BRAND     : isom
    MINOR_VERSION   : 512
    encoder         : Lavf61.7.100
  Stream #0:0: Video: wrapped_avframe, yuv420p10le(tv, bt709, progressive), 1920x1080 [SAR 1:1 DAR 16:9], q=2-31, 200 kb/s, 23.98 fps, 23.98 tbn
      Metadata:
        encoder         : Lavc61.19.100 wrapped_avframe
  Stream #0:1: Audio: pcm_s16le, 48000 Hz, stereo, s16, 1536 kb/s (default)
      Metadata:
        HANDLER_NAME    : SoundHandler
        VENDOR_ID       : [0][0][0][0]
        _STATISTICS_TAGS: BPS DURATION NUMBER_OF_FRAMES NUMBER_OF_BYTES
        BPS             : 192845
        DURATION        : 00:23:59.402000000
        NUMBER_OF_FRAMES: 67473
        NUMBER_OF_BYTES : 34697735
        _STATISTICS_WRITING_APP: mkvpropedit v66.0.0 ('Josie') 64-bit
        _STATISTICS_WRITING_DATE_UTC: 2025-05-07 14:11:41
        encoder         : Lavc61.19.100 pcm_s16le
frame=  161 fps=0.0 q=-0.0 size=N/A time=00:00:06.71 bitrate=N/A speed=13.1x    frame=  384 fps=371 q=-0.0 size=N/A time=00:00:16.01 bitrate=N/A speed=15.5x    frame=  614 fps=396 q=-0.0 size=N/A time=00:00:25.60 bitrate=N/A speed=16.5x    frame=  835 fps=405 q=-0.0 size=N/A time=00:00:34.82 bitrate=N/A speed=16.9x    frame= 1070 fps=414 q=-0.0 size=N/A time=00:00:44.62 bitrate=N/A speed=17.3x    frame= 1320 fps=427 q=-0.0 size=N/A time=00:00:55.05 bitrate=N/A speed=17.8x    frame= 1492 fps=413 q=-0.0 size=N/A time=00:01:02.22 bitrate=N/A speed=17.2x    frame= 1651 fps=401 q=-0.0 size=N/A time=00:01:08.86 bitrate=N/A speed=16.7x    frame= 1881 fps=405 q=-0.0 size=N/A time=00:01:18.45 bitrate=N/A speed=16.9x    frame= 2130 fps=413 q=-0.0 size=N/A time=00:01:28.83 bitrate=N/A speed=17.2x    frame= 2376 fps=419 q=-0.0 size=N/A time=00:01:39.09 bitrate=N/A speed=17.5x    frame= 2581 fps=418 q=-0.0 size=N/A time=00:01:47.64 bitrate=N/A speed=17.4x    frame= 2849 fps=425 q=-0.0 size=N/A time=00:01:58.82 bitrate=N/A speed=17.7x    frame= 3110 fps=431 q=-0.0 size=N/A time=00:02:09.71 bitrate=N/A speed=  18x    frame= 3392 fps=439 q=-0.0 size=N/A time=00:02:21.47 bitrate=N/A speed=18.3x    frame= 3648 fps=443 q=-0.0 size=N/A time=00:02:32.15 bitrate=N/A speed=18.5x    frame= 3912 fps=446 q=-0.0 size=N/A time=00:02:43.16 bitrate=N/A speed=18.6x    frame= 4173 fps=450 q=-0.0 size=N/A time=00:02:54.04 bitrate=N/A speed=18.8x    frame= 4448 fps=454 q=-0.0 size=N/A time=00:03:05.51 bitrate=N/A speed=18.9x    frame= 4730 fps=459 q=-0.0 size=N/A time=00:03:17.28 bitrate=N/A speed=19.1x    frame= 4996 fps=462 q=-0.0 size=N/A time=00:03:28.37 bitrate=N/A speed=19.3x    frame= 5266 fps=464 q=-0.0 size=N/A time=00:03:39.63 bitrate=N/A speed=19.4x    frame= 5534 fps=467 q=-0.0 size=N/A time=00:03:50.81 bitrate=N/A speed=19.5x    frame= 5793 fps=469 q=-0.0 size=N/A time=00:04:01.61 bitrate=N/A speed=19.5x    frame= 6074 fps=471 q=-0.0 size=N/A time=00:04:13.33 bitrate=N/A speed=19.7x    frame= 6332 fps=473 q=-0.0 size=N/A time=00:04:24.09 bitrate=N/A speed=19.7x    frame= 6596 fps=474 q=-0.0 size=N/A time=00:04:35.10 bitrate=N/A speed=19.8x    frame= 6853 fps=475 q=-0.0 size=N/A time=00:04:45.82 bitrate=N/A speed=19.8x    frame= 7115 fps=476 q=-0.0 size=N/A time=00:04:56.75 bitrate=N/A speed=19.8x    frame= 7379 fps=477 q=-0.0 size=N/A time=00:05:07.76 bitrate=N/A speed=19.9x    frame= 7637 fps=478 q=-0.0 size=N/A time=00:05:18.52 bitrate=N/A speed=19.9x    frame= 7909 fps=479 q=-0.0 size=N/A time=00:05:29.87 bitrate=N/A speed=  20x    frame= 8160 fps=480 q=-0.0 size=N/A time=00:05:40.34 bitrate=N/A speed=  20x    frame= 8433 fps=481 q=-0.0 size=N/A time=00:05:51.72 bitrate=N/A speed=20.1x    frame= 8695 fps=482 q=-0.0 size=N/A time=00:06:02.65 bitrate=N/A speed=20.1x    frame= 8957 fps=483 q=-0.0 size=N/A time=00:06:13.58 bitrate=N/A speed=20.1x    frame= 9208 fps=483 q=-0.0 size=N/A time=00:06:24.05 bitrate=N/A speed=20.1x    frame= 9468 fps=483 q=-0.0 size=N/A time=00:06:34.89 bitrate=N/A speed=20.2x    frame= 9723 fps=484 q=-0.0 size=N/A time=00:06:45.53 bitrate=N/A speed=20.2x    frame= 9981 fps=484 q=-0.0 size=N/A time=00:06:56.29 bitrate=N/A speed=20.2x    frame=10253 fps=485 q=-0.0 size=N/A time=00:07:07.63 bitrate=N/A speed=20.2x    frame=10526 fps=486 q=-0.0 size=N/A time=00:07:19.02 bitrate=N/A speed=20.3x    frame=10784 fps=486 q=-0.0 size=N/A time=00:07:29.78 bitrate=N/A speed=20.3x    frame=11051 fps=486 q=-0.0 size=N/A time=00:07:40.91 bitrate=N/A speed=20.3x    frame=11318 fps=487 q=-0.0 size=N/A time=00:07:52.05 bitrate=N/A speed=20.3x    frame=11576 fps=488 q=-0.0 size=N/A time=00:08:02.81 bitrate=N/A speed=20.3x    frame=11850 fps=489 q=-0.0 size=N/A time=00:08:14.24 bitrate=N/A speed=20.4x    frame=12104 fps=488 q=-0.0 size=N/A time=00:08:24.83 bitrate=N/A speed=20.4x    frame=12319 fps=487 q=-0.0 size=N/A time=00:08:33.80 bitrate=N/A speed=20.3x    frame=12544 fps=486 q=-0.0 size=N/A time=00:08:43.18 bitrate=N/A speed=20.3x    frame=12787 fps=486 q=-0.0 size=N/A time=00:08:53.32 bitrate=N/A speed=20.3x    frame=13042 fps=486 q=-0.0 size=N/A time=00:09:03.96 bitrate=N/A speed=20.3x    frame=13286 fps=486 q=-0.0 size=N/A time=00:09:14.13 bitrate=N/A speed=20.3x    frame=13516 fps=485 q=-0.0 size=N/A time=00:09:23.72 bitrate=N/A speed=20.2x    frame=13770 fps=485 q=-0.0 size=N/A time=00:09:34.32 bitrate=N/A speed=20.2x    frame=14030 fps=485 q=-0.0 size=N/A time=00:09:45.16 bitrate=N/A speed=20.2x    frame=14298 fps=486 q=-0.0 size=N/A time=00:09:56.34 bitrate=N/A speed=20.3x    frame=14556 fps=486 q=-0.0 size=N/A time=00:10:07.10 bitrate=N/A speed=20.3x    frame=14817 fps=487 q=-0.0 size=N/A time=00:10:17.99 bitrate=N/A speed=20.3x    frame=15079 fps=487 q=-0.0 size=N/A time=00:10:28.91 bitrate=N/A speed=20.3x    frame=15342 fps=487 q=-0.0 size=N/A time=00:10:39.88 bitrate=N/A speed=20.3x    frame=15598 fps=488 q=-0.0 size=N/A time=00:10:50.56 bitrate=N/A speed=20.3x    frame=15880 fps=488 q=-0.0 size=N/A time=00:11:02.32 bitrate=N/A speed=20.4x    frame=16158 fps=489 q=-0.0 size=N/A time=00:11:13.92 bitrate=N/A speed=20.4x    frame=16426 fps=490 q=-0.0 size=N/A time=00:11:25.10 bitrate=N/A speed=20.4x    frame=16713 fps=491 q=-0.0 size=N/A time=00:11:37.07 bitrate=N/A speed=20.5x    frame=16992 fps=492 q=-0.0 size=N/A time=00:11:48.70 bitrate=N/A speed=20.5x    frame=17262 fps=492 q=-0.0 size=N/A time=00:11:59.96 bitrate=N/A speed=20.5x    frame=17531 fps=492 q=-0.0 size=N/A time=00:12:11.18 bitrate=N/A speed=20.5x    frame=17796 fps=493 q=-0.0 size=N/A time=00:12:22.24 bitrate=N/A speed=20.5x    frame=18072 fps=493 q=-0.0 size=N/A time=00:12:33.75 bitrate=N/A speed=20.6x    frame=18324 fps=493 q=-0.0 size=N/A time=00:12:44.26 bitrate=N/A speed=20.6x    frame=18570 fps=493 q=-0.0 size=N/A time=00:12:54.52 bitrate=N/A speed=20.6x    frame=18847 fps=493 q=-0.0 size=N/A time=00:13:06.07 bitrate=N/A speed=20.6x    frame=19101 fps=493 q=-0.0 size=N/A time=00:13:16.67 bitrate=N/A speed=20.6x    frame=19380 fps=494 q=-0.0 size=N/A time=00:13:28.30 bitrate=N/A speed=20.6x    frame=19648 fps=494 q=-0.0 size=N/A time=00:13:39.48 bitrate=N/A speed=20.6x    frame=19932 fps=495 q=-0.0 size=N/A time=00:13:51.33 bitrate=N/A speed=20.6x    frame=20195 fps=495 q=-0.0 size=N/A time=00:14:02.29 bitrate=N/A speed=20.7x    frame=20459 fps=495 q=-0.0 size=N/A time=00:14:13.31 bitrate=N/A speed=20.7x    frame=20719 fps=495 q=-0.0 size=N/A time=00:14:24.15 bitrate=N/A speed=20.7x    frame=20979 fps=495 q=-0.0 size=N/A time=00:14:34.99 bitrate=N/A speed=20.7x    frame=21230 fps=495 q=-0.0 size=N/A time=00:14:45.46 bitrate=N/A speed=20.7x    frame=21471 fps=495 q=-0.0 size=N/A time=00:14:55.51 bitrate=N/A speed=20.6x    frame=21705 fps=495 q=-0.0 size=N/A time=00:15:05.27 bitrate=N/A speed=20.6x    frame=21984 fps=495 q=-0.0 size=N/A time=00:15:16.91 bitrate=N/A speed=20.6x    frame=22245 fps=495 q=-0.0 size=N/A time=00:15:27.80 bitrate=N/A speed=20.7x    frame=22529 fps=496 q=-0.0 size=N/A time=00:15:39.64 bitrate=N/A speed=20.7x    frame=22775 fps=496 q=-0.0 size=N/A time=00:15:49.90 bitrate=N/A speed=20.7x    frame=23032 fps=496 q=-0.0 size=N/A time=00:16:00.62 bitrate=N/A speed=20.7x    frame=23295 fps=496 q=-0.0 size=N/A time=00:16:11.59 bitrate=N/A speed=20.7x    frame=23557 fps=496 q=-0.0 size=N/A time=00:16:22.52 bitrate=N/A speed=20.7x    frame=23835 fps=496 q=-0.0 size=N/A time=00:16:34.11 bitrate=N/A speed=20.7x    frame=24104 fps=497 q=-0.0 size=N/A time=00:16:45.33 bitrate=N/A speed=20.7x    frame=24367 fps=497 q=-0.0 size=N/A time=00:16:56.30 bitrate=N/A speed=20.7x    frame=24636 fps=497 q=-0.0 size=N/A time=00:17:07.52 bitrate=N/A speed=20.7x    frame=24908 fps=497 q=-0.0 size=N/A time=00:17:18.87 bitrate=N/A speed=20.7x    frame=25171 fps=498 q=-0.0 size=N/A time=00:17:29.84 bitrate=N/A speed=20.8x    frame=25441 fps=498 q=-0.0 size=N/A time=00:17:41.10 bitrate=N/A speed=20.8x    frame=25697 fps=498 q=-0.0 size=N/A time=00:17:51.77 bitrate=N/A speed=20.8x    frame=25946 fps=498 q=-0.0 size=N/A time=00:18:02.16 bitrate=N/A speed=20.8x    frame=26187 fps=497 q=-0.0 size=N/A time=00:18:12.21 bitrate=N/A speed=20.7x    frame=26451 fps=498 q=-0.0 size=N/A time=00:18:23.22 bitrate=N/A speed=20.8x    frame=26718 fps=498 q=-0.0 size=N/A time=00:18:34.36 bitrate=N/A speed=20.8x    frame=26984 fps=498 q=-0.0 size=N/A time=00:18:45.45 bitrate=N/A speed=20.8x    frame=27261 fps=498 q=-0.0 size=N/A time=00:18:57.01 bitrate=N/A speed=20.8x    frame=27530 fps=498 q=-0.0 size=N/A time=00:19:08.23 bitrate=N/A speed=20.8x    frame=27774 fps=498 q=-0.0 size=N/A time=00:19:18.40 bitrate=N/A speed=20.8x    frame=28018 fps=498 q=-0.0 size=N/A time=00:19:28.58 bitrate=N/A speed=20.8x    frame=28279 fps=498 q=-0.0 size=N/A time=00:19:39.46 bitrate=N/A speed=20.8x    frame=28535 fps=498 q=-0.0 size=N/A time=00:19:50.14 bitrate=N/A speed=20.8x    frame=28789 fps=498 q=-0.0 size=N/A time=00:20:00.74 bitrate=N/A speed=20.8x    frame=29064 fps=498 q=-0.0 size=N/A time=00:20:12.21 bitrate=N/A speed=20.8x    frame=29332 fps=499 q=-0.0 size=N/A time=00:20:23.38 bitrate=N/A speed=20.8x    frame=29612 fps=499 q=-0.0 size=N/A time=00:20:35.06 bitrate=N/A speed=20.8x    frame=29883 fps=499 q=-0.0 size=N/A time=00:20:46.37 bitrate=N/A speed=20.8x    frame=30162 fps=499 q=-0.0 size=N/A time=00:20:58.00 bitrate=N/A speed=20.8x    frame=30443 fps=500 q=-0.0 size=N/A time=00:21:09.72 bitrate=N/A speed=20.8x    frame=30722 fps=500 q=-0.0 size=N/A time=00:21:21.36 bitrate=N/A speed=20.9x    frame=30999 fps=500 q=-0.0 size=N/A time=00:21:32.91 bitrate=N/A speed=20.9x    frame=31269 fps=500 q=-0.0 size=N/A time=00:21:44.17 bitrate=N/A speed=20.9x    frame=31532 fps=501 q=-0.0 size=N/A time=00:21:55.14 bitrate=N/A speed=20.9x    frame=31770 fps=500 q=-0.0 size=N/A time=00:22:05.07 bitrate=N/A speed=20.9x    frame=32034 fps=500 q=-0.0 size=N/A time=00:22:16.08 bitrate=N/A speed=20.9x    frame=32250 fps=500 q=-0.0 size=N/A time=00:22:25.09 bitrate=N/A speed=20.8x    frame=32499 fps=499 q=-0.0 size=N/A time=00:22:35.47 bitrate=N/A speed=20.8x    frame=32712 fps=499 q=-0.0 size=N/A time=00:22:44.36 bitrate=N/A speed=20.8x    frame=32896 fps=498 q=-0.0 size=N/A time=00:22:52.03 bitrate=N/A speed=20.8x    frame=33129 fps=497 q=-0.0 size=N/A time=00:23:01.75 bitrate=N/A speed=20.7x    frame=33335 fps=497 q=-0.0 size=N/A time=00:23:10.34 bitrate=N/A speed=20.7x    frame=33518 fps=496 q=-0.0 size=N/A time=00:23:17.97 bitrate=N/A speed=20.7x    frame=33744 fps=495 q=-0.0 size=N/A time=00:23:27.40 bitrate=N/A speed=20.6x    frame=33882 fps=493 q=-0.0 size=N/A time=00:23:33.16 bitrate=N/A speed=20.6x    frame=34061 fps=492 q=-0.0 size=N/A time=00:23:40.62 bitrate=N/A speed=20.5x    frame=34273 fps=492 q=-0.0 size=N/A time=00:23:49.46 bitrate=N/A speed=20.5x    [Parsed_ssim_10 @ 00000213d987c740] SSIM Y:0.992547 (21.276423) U:0.994997 (23.007631) V:0.994479 (22.580198) All:0.993277 (21.724431)
[out#0/null @ 00000213d946d2c0] video:14800KiB audio:269892KiB subtitle:0KiB other streams:0KiB global headers:0KiB muxing overhead: unknown
frame=34443 fps=491 q=-0.0 Lsize=N/A time=00:23:56.56 bitrate=N/A speed=20.5x    
